<svg xmlns="http://www.w3.org/2000/svg" width="500" height="500" style="width:100%;height:100%;transform:translate3d(0,0,0);content-visibility:visible" viewBox="0 0 500 500"><defs><clipPath id="a"><path d="M0 0h500v500H0z"/></clipPath></defs><g clip-path="url(#a)"><g style="display:block"><path fill="#F14B00" d="M172.94 318.389s-24.58 24.56-35.45 72.95c-.8 3.53-4.49 6.79-8.14-9.58-8.55-31.43-23.24-94.16-23.24-154.43 0-75.91 61.54-137.45 137.45-137.45 43.82 0 81.47 11.56 108.03 52.46-38.43 15.84-51.27 41.01-51.27 41.01m-24.5-87.77-13.37 44.94m-28.49 1.09-15.35-46.93"/><path fill="none" stroke="#F14B00" stroke-linecap="round" stroke-linejoin="round" stroke-width="7" d="M49.973-21.377 36.597 23.56M8.113 24.652-7.238-22.277" opacity=".5" style="mix-blend-mode:multiply" transform="translate(225.849 116.955)"/></g><g fill="#636D78" style="display:block"><path d="M325.175 203.866c-17.149-20.346-42.829-33.277-71.533-33.277-51.64 0-93.515 41.866-93.515 93.515 0 20.497 19.21 69.502 19.21 69.502a66.816 66.816 0 0 1-6.674 57.508c-2.333 3.691.319 8.506 4.686 8.506h10.232c11.598 0 22.63-5.01 30.264-13.741l26.234-30.006a13.917 13.917 0 0 1 21.801 1.073l12.447 17.435a69.321 69.321 0 0 0 48.843 28.628l62.516 6.872c2.277.25 3.983-2.041 3.09-4.151l-32.254-76.207a2.001 2.001 0 0 0-1.831-1.221l-50.172-.27c-10.25-.055-18.529-8.38-18.529-18.63 0-7.595 4.61-14.429 11.652-17.273l55.692-22.496a3 3 0 0 0 1.7-3.795l-23.342-65.052a3 3 0 0 0-4.636-1.377l-83.708 63.478"/><path d="m-2.605 13.014 77.826-59.021A94.052 94.052 0 0 0 61.475-59.29l-64.08 72.304zm-60.904 129.882a66.816 66.816 0 0 0 6.674-57.508s-19.21-49.005-19.21-69.502c0-51.649 41.875-93.516 93.515-93.516 1.706 0 3.401.049 5.085.139A93.9 93.9 0 0 0 3.642-79.41c-51.64 0-93.515 41.866-93.515 93.515 0 20.497 19.21 69.502 19.21 69.502a66.818 66.818 0 0 1-6.674 57.509c-2.333 3.691.319 8.505 4.686 8.505h9.76c-1.593-1.738-2.059-4.444-.618-6.725zm105.664-16.734-12.447-17.434a13.916 13.916 0 0 0-11.325-5.83c-1.874 0-3.699.392-5.388 1.102a13.886 13.886 0 0 1 2.885 2.947l12.447 17.435A69.321 69.321 0 0 0 77.17 153.01l8.19.9c-17.352-3.37-32.851-13.245-43.205-27.748z" opacity=".5" style="mix-blend-mode:multiply" transform="translate(250 249.999)"/></g><g class="com" style="display:none"><path/><path/><path/><path/><path/><path/><path/><path/><path/><path/><path/><path/></g></g></svg>